<svg width="32" height="32" viewBox="0 0 32 32" fill="none" xmlns="http://www.w3.org/2000/svg">
<path d="M19 4C18.1703 4 17.5 4.67031 17.5 5.5C17.5 6.32969 18.1703 7 19 7H22.8766L13.4406 16.4406C12.8547 17.0266 12.8547 17.9781 13.4406 18.5641C14.0266 19.15 14.9781 19.15 15.5641 18.5641L25 9.12344V13C25 13.8297 25.6703 14.5 26.5 14.5C27.3297 14.5 28 13.8297 28 13V5.5C28 4.67031 27.3297 4 26.5 4H19ZM7.75 5.5C5.67812 5.5 4 7.17812 4 9.25V24.25C4 26.3219 5.67812 28 7.75 28H22.75C24.8219 28 26.5 26.3219 26.5 24.25V19C26.5 18.1703 25.8297 17.5 25 17.5C24.1703 17.5 23.5 18.1703 23.5 19V24.25C23.5 24.6625 23.1625 25 22.75 25H7.75C7.3375 25 7 24.6625 7 24.25V9.25C7 8.8375 7.3375 8.5 7.75 8.5H13C13.8297 8.5 14.5 7.82969 14.5 7C14.5 6.17031 13.8297 5.5 13 5.5H7.75Z" fill="black"/>
</svg>
