<svg width="96" height="40" viewBox="0 0 96 40" fill="none" xmlns="http://www.w3.org/2000/svg">
<path fill-rule="evenodd" clip-rule="evenodd" d="M8 0H88C92.4183 0 96 3.58172 96 8V32C96 36.4183 92.4183 40 88 40H8C3.58172 40 0 36.4183 0 32V8C0 3.58172 3.58172 0 8 0ZM71.7234 28H69.5437H68.2078V10.9375H74.1609C75.1531 10.9375 76.0398 11.0312 76.8211 11.2188C77.6102 11.4062 78.2781 11.6914 78.825 12.0742C79.3719 12.457 79.7898 12.9414 80.0789 13.5273C80.368 14.1055 80.5125 14.793 80.5125 15.5898C80.5125 16.293 80.3523 16.9414 80.032 17.5352C79.7195 18.1289 79.2234 18.6133 78.5437 18.9883C78.4016 19.0676 78.2501 19.1395 78.0893 19.2038C78.4532 19.2953 78.7766 19.4266 79.0594 19.5977C79.7 19.9727 80.1648 20.4609 80.4539 21.0625C80.7508 21.6641 80.8992 22.3086 80.8992 22.9961C80.8992 24.0898 80.6609 25.0117 80.1844 25.7617C79.7078 26.5039 79.0086 27.0625 78.0867 27.4375C77.1727 27.8125 76.0555 28 74.7352 28H71.7234ZM55.4367 28H53.7141H51.7219H50.1984V10.9375H51.6516H53.7141H55.4719C56.6125 10.9375 57.6555 11.1328 58.6008 11.5234C59.5539 11.9062 60.3781 12.457 61.0734 13.1758C61.7687 13.8945 62.3039 14.7539 62.6789 15.7539C63.0617 16.7461 63.2531 17.8516 63.2531 19.0703V19.8789C63.2531 21.0898 63.0617 22.1953 62.6789 23.1953C62.3039 24.1953 61.7687 25.0547 61.0734 25.7734C60.3859 26.4844 59.5617 27.0352 58.6008 27.4258C57.6477 27.8086 56.593 28 55.4367 28ZM44.9625 25.8438V19.082H38.2359V21.5898H41.4469V24.6133C41.3219 24.7383 41.1422 24.8711 40.9078 25.0117C40.6813 25.1445 40.3805 25.2578 40.0055 25.3516C39.6383 25.4453 39.1773 25.4922 38.6227 25.4922C37.9586 25.4922 37.3766 25.375 36.8766 25.1406C36.3766 24.9062 35.9547 24.5586 35.6109 24.0977C35.275 23.6289 35.0211 23.0547 34.8492 22.375C34.6773 21.6875 34.5914 20.8984 34.5914 20.0078V18.918C34.5914 18.0195 34.6734 17.2305 34.8375 16.5508C35.0016 15.8711 35.2398 15.3008 35.5523 14.8398C35.8648 14.3789 36.2477 14.0312 36.7008 13.7969C37.1617 13.5547 37.6852 13.4336 38.2711 13.4336C38.982 13.4336 39.5602 13.5547 40.0055 13.7969C40.4586 14.0391 40.8063 14.375 41.0484 14.8047C41.2906 15.2344 41.4547 15.7383 41.5406 16.3164H44.9508C44.8336 15.2227 44.5211 14.2539 44.0133 13.4102C43.5133 12.5586 42.7867 11.8945 41.8336 11.418C40.8805 10.9336 39.6617 10.6914 38.1773 10.6914C37.107 10.6914 36.1344 10.875 35.2594 11.2422C34.3844 11.6094 33.6305 12.1445 32.9977 12.8477C32.3648 13.5508 31.8766 14.4141 31.5328 15.4375C31.1969 16.4609 31.0289 17.6289 31.0289 18.9414V20.0078C31.0289 21.3203 31.2047 22.4883 31.5562 23.5117C31.9078 24.5273 32.4078 25.3867 33.0563 26.0898C33.7125 26.793 34.4938 27.3281 35.4 27.6953C36.3063 28.0547 37.3102 28.2344 38.4117 28.2344C39.6539 28.2344 40.7125 28.1016 41.5875 27.8359C42.4625 27.5703 43.1773 27.2539 43.732 26.8867C44.2867 26.5117 44.6969 26.1641 44.9625 25.8438ZM23.6953 10.9375H27.6094L21.668 28H20.5898H19.0898H17.9883L12.082 10.9375H15.9727L19.8283 23.9251L23.6953 10.9375Z" fill="white"/>
<path fill-rule="evenodd" clip-rule="evenodd" d="M53.7141 13.6914V25.2578H55.4367C56.3586 25.2578 57.1359 25.0508 57.7687 24.6367C58.4016 24.2148 58.8781 23.6016 59.1984 22.7969C59.5266 21.9922 59.6906 21.0195 59.6906 19.8789V19.0469C59.6906 18.1719 59.5969 17.4023 59.4094 16.7383C59.2297 16.0742 58.9602 15.5156 58.6008 15.0625C58.2414 14.6094 57.8 14.2695 57.2766 14.043C56.7531 13.8086 56.1516 13.6914 55.4719 13.6914H53.7141ZM71.7234 20.5117V25.2578H74.7352C75.3523 25.2578 75.8562 25.1602 76.2469 24.9648C76.6375 24.7617 76.9266 24.4883 77.1141 24.1445C77.3016 23.8008 77.3953 23.4062 77.3953 22.9609C77.3953 22.4609 77.3094 22.0273 77.1375 21.6602C76.9734 21.293 76.7078 21.0117 76.3406 20.8164C75.9734 20.6133 75.4891 20.5117 74.8875 20.5117H71.7234ZM71.7234 13.6914V18.0977H74.1609C74.8094 18.0977 75.3406 18.0156 75.7547 17.8516C76.1687 17.6797 76.4773 17.4336 76.6805 17.1133C76.8914 16.7852 76.9969 16.3867 76.9969 15.918C76.9969 15.3867 76.8953 14.957 76.6922 14.6289C76.4969 14.3008 76.1883 14.0625 75.7664 13.9141C75.3523 13.7656 74.8172 13.6914 74.1609 13.6914H71.7234Z" fill="white"/>
</svg>
